0
SECTION
2
HEADER
9
$INSUNITS
70
1
9
$ACADVER
1
AC1014
9
$HANDSEED
5
FFFF
0
ENDSEC
0
SECTION
2
TABLES
0
TABLE
2
VPORT
5
8
100
AcDbSymbolTable
0
ENDTAB
0
TABLE
2
LTYPE
5
5
100
AcDbSymbolTable
0
LTYPE
5
14
100
AcDbSymbolTableRecord
100
AcDbLinetypeTableRecord
2
BYBLOCK
70
0
0
LTYPE
5
15
100
AcDbSymbolTableRecord
100
AcDbLinetypeTableRecord
2
BYLAYER
70
0
0
ENDTAB
0
TABLE
2
LAYER
5
2
100
AcDbSymbolTable
70
2
0
LAYER
5
50
100
AcDbSymbolTableRecord
100
AcDbLayerTableRecord
2
0
70
0
6
CONTINUOUS
0
ENDTAB
0
TABLE
2
STYLE
5
3
100
AcDbSymbolTable
70
1
0
STYLE
5
11
100
AcDbSymbolTableRecord
100
AcDbTextStyleTableRecord
2
STANDARD
70
0
0
ENDTAB
0
TABLE
2
VIEW
5
6
100
AcDbSymbolTable
70
0
0
ENDTAB
0
TABLE
2
UCS
5
7
100
AcDbSymbolTable
70
0
0
ENDTAB
0
TABLE
2
APPID
5
9
100
AcDbSymbolTable
70
2
0
APPID
5
12
100
AcDbSymbolTableRecord
100
AcDbRegAppTableRecord
2
ACAD
70
0
0
ENDTAB
0
TABLE
2
DIMSTYLE
5
A
100
AcDbSymbolTable
70
1
0
ENDTAB
0
TABLE
2
BLOCK_RECORD
5
1
100
AcDbSymbolTable
70
1
0
BLOCK_RECORD
5
1F
100
AcDbSymbolTableRecord
100
AcDbBlockTableRecord
2
*MODEL_SPACE
0
BLOCK_RECORD
5
1B
100
AcDbSymbolTableRecord
100
AcDbBlockTableRecord
2
*PAPER_SPACE
0
ENDTAB
0
ENDSEC
0
SECTION
2
BLOCKS
0
BLOCK
5
20
100
AcDbEntity
100
AcDbBlockBegin
2
*MODEL_SPACE
0
ENDBLK
5
21
100
AcDbEntity
100
AcDbBlockEnd
0
BLOCK
5
1C
100
AcDbEntity
100
AcDbBlockBegin
2
*PAPER_SPACE
0
ENDBLK
5
1D
100
AcDbEntity
100
AcDbBlockEnd
0
ENDSEC
0
SECTION
2
ENTITIES
0
LWPOLYLINE
5
100
100
AcDbEntity
8
0
100
AcDbPolyline
90
36
70
1
43
0.0
10
-7.03740157480315
20
-0.61206368726009941
10
-8.28740157480315
20
-0.61206368726009819
10
-8.28740157480315
20
-0.31206367928152789
10
-8.4448818897637796
20
-0.3120636792815274
10
-8.4448818897637796
20
-0.61206368726009808
10
-8.7851699734365276
20
-0.61206368726009763
10
-8.7851699734365276
20
-0.012063671302956854
10
-0.29999999999999993
20
-0.012063671302957182
10
-0.29999999999999993
20
0.48793632869704279
10
0
20
0.48793632869704268
10
0
20
-0.22125984251968503
10
-0.29999999999999999
20
-0.22125984251968503
10
-0.29999999999999999
20
-0.37874015748031492
10
0
20
-0.37874015748031492
10
0
20
-1.1120636872601057
10
-0.29999999999999999
20
-1.112063687260106
10
-0.29999999999999999
20
-0.61206368726010585
10
-1.25
20
-0.61206368726010496
10
-1.2499999999999998
20
-0.31206368726010547
10
-1.4074803149606296
20
-0.31206368726010547
10
-1.4074803149606301
20
-0.6120636872601054
10
-2.6574803149606301
20
-0.61206368726010407
10
-2.6574803149606305
20
-0.31206368726010414
10
-2.8149606299212606
20
-0.31206368726010414
10
-2.8149606299212606
20
-0.61206368726010407
10
-4.0649606299212611
20
-0.61206368726010252
10
-4.0649606299212611
20
-0.31206367928152973
10
-4.2224409448818907
20
-0.31206367928152945
10
-4.2224409448818907
20
-0.61206368726010241
10
-5.4724409448818907
20
-0.61206368726010119
10
-5.4724409448818907
20
-0.31206367928152839
10
-5.6299212598425212
20
-0.31206367928152878
10
-5.6299212598425212
20
-0.61206368726010119
10
-6.8799212598425212
20
-0.61206368726009963
10
-6.8799212598425212
20
-0.31206367928152823
10
-7.03740157480315
20
-0.31206367928152806
0
ENDSEC
0
SECTION
2
OBJECTS
0
DICTIONARY
5
C
100
AcDbDictionary
3
ACAD_GROUP
350
D
3
ACAD_MLINESTYLE
350
17
0
DICTIONARY
5
D
100
AcDbDictionary
0
DICTIONARY
5
1A
330
C
100
AcDbDictionary
0
DICTIONARY
5
17
100
AcDbDictionary
0
ENDSEC
0
EOF
