0
SECTION
2
HEADER
9
$INSUNITS
70
1
9
$ACADVER
1
AC1014
9
$HANDSEED
5
FFFF
0
ENDSEC
0
SECTION
2
TABLES
0
TABLE
2
VPORT
5
8
100
AcDbSymbolTable
0
ENDTAB
0
TABLE
2
LTYPE
5
5
100
AcDbSymbolTable
0
LTYPE
5
14
100
AcDbSymbolTableRecord
100
AcDbLinetypeTableRecord
2
BYBLOCK
70
0
0
LTYPE
5
15
100
AcDbSymbolTableRecord
100
AcDbLinetypeTableRecord
2
BYLAYER
70
0
0
ENDTAB
0
TABLE
2
LAYER
5
2
100
AcDbSymbolTable
70
2
0
LAYER
5
50
100
AcDbSymbolTableRecord
100
AcDbLayerTableRecord
2
0
70
0
6
CONTINUOUS
0
ENDTAB
0
TABLE
2
STYLE
5
3
100
AcDbSymbolTable
70
1
0
STYLE
5
11
100
AcDbSymbolTableRecord
100
AcDbTextStyleTableRecord
2
STANDARD
70
0
0
ENDTAB
0
TABLE
2
VIEW
5
6
100
AcDbSymbolTable
70
0
0
ENDTAB
0
TABLE
2
UCS
5
7
100
AcDbSymbolTable
70
0
0
ENDTAB
0
TABLE
2
APPID
5
9
100
AcDbSymbolTable
70
2
0
APPID
5
12
100
AcDbSymbolTableRecord
100
AcDbRegAppTableRecord
2
ACAD
70
0
0
ENDTAB
0
TABLE
2
DIMSTYLE
5
A
100
AcDbSymbolTable
70
1
0
ENDTAB
0
TABLE
2
BLOCK_RECORD
5
1
100
AcDbSymbolTable
70
1
0
BLOCK_RECORD
5
1F
100
AcDbSymbolTableRecord
100
AcDbBlockTableRecord
2
*MODEL_SPACE
0
BLOCK_RECORD
5
1B
100
AcDbSymbolTableRecord
100
AcDbBlockTableRecord
2
*PAPER_SPACE
0
ENDTAB
0
ENDSEC
0
SECTION
2
BLOCKS
0
BLOCK
5
20
100
AcDbEntity
100
AcDbBlockBegin
2
*MODEL_SPACE
0
ENDBLK
5
21
100
AcDbEntity
100
AcDbBlockEnd
0
BLOCK
5
1C
100
AcDbEntity
100
AcDbBlockBegin
2
*PAPER_SPACE
0
ENDBLK
5
1D
100
AcDbEntity
100
AcDbBlockEnd
0
ENDSEC
0
SECTION
2
ENTITIES
0
LWPOLYLINE
5
100
100
AcDbEntity
8
0
100
AcDbPolyline
90
52
70
1
43
0.0
10
-12.673787493100743
20
-0.61206368726009763
10
-13.923787493100743
20
-0.61206368726009763
10
-13.923787493100743
20
-0.31206367928152212
10
-14.081267808061371
20
-0.31206367928152223
10
-14.081267808061371
20
-0.61206368726009763
10
-14.277950936173612
20
-0.61206368726009763
10
-14.277950936173612
20
-0.012063671302956831
10
-0.30734897341570511
20
-0.012063671302956481
10
-0.30734897341570511
20
0.48793632869704351
10
0.11565102658429485
20
0.48793632869704207
10
0.11565102658429485
20
-0.22125984252013448
10
-0.18434897341570514
20
-0.22125984252013448
10
-0.18434897341570514
20
-0.37874015748076439
10
0.11565102658429485
20
-0.37874015748083534
10
0.11565102658429485
20
-1.1120636872601142
10
-0.30694497341570515
20
-1.1120636872601128
10
-0.30694497341570515
20
-0.61206368726011284
10
-1.256944973415705
20
-0.61206368726011195
10
-1.256944973415705
20
-0.31206368726009931
10
-1.4144252883763346
20
-0.31206368726009898
10
-1.4144252883763351
20
-0.61206368726009897
10
-2.6644252883763344
20
-0.61206368726009763
10
-2.6644252883763349
20
-0.3120636872600977
10
-2.8219056033369649
20
-0.3120636872600977
10
-2.8219056033369649
20
-0.61206368726009908
10
-4.0719056033369645
20
-0.61206368726009763
10
-4.0719056033369645
20
-0.31206367928152984
10
-4.2293859182975941
20
-0.31206367928152984
10
-4.2293859182975941
20
-0.61206368726009885
10
-5.4793859182975941
20
-0.61206368726009763
10
-5.4793859182975941
20
-0.31206367928152923
10
-5.6368662332582247
20
-0.31206367928152873
10
-5.6368662332582247
20
-0.61206368726009908
10
-6.8868662332582247
20
-0.61206368726009763
10
-6.8868662332582247
20
-0.31206367928152778
10
-7.0443465482188543
20
-0.31206367928152762
10
-7.0443465482188543
20
-0.61206368726009885
10
-8.2943465482188543
20
-0.61206368726009763
10
-8.2943465482188543
20
-0.31206367928152634
10
-8.451826863179484
20
-0.31206367928152656
10
-8.451826863179484
20
-0.61206368726009763
10
-9.701826863179484
20
-0.61206368726009763
10
-9.701826863179484
20
-0.31206367928152862
10
-9.8593071781401136
20
-0.31206367928152551
10
-9.8593071781401136
20
-0.61206368726009763
10
-11.109307178140114
20
-0.61206368726009763
10
-11.109307178140114
20
-0.31206367928152406
10
-11.266787493100743
20
-0.3120636792815244
10
-11.266787493100743
20
-0.61206368726009763
10
-12.516787493100743
20
-0.61206368726009763
10
-12.516787493100743
20
-0.31206367928152329
10
-12.673787493100743
20
-0.31206367928152334
0
ENDSEC
0
SECTION
2
OBJECTS
0
DICTIONARY
5
C
100
AcDbDictionary
3
ACAD_GROUP
350
D
3
ACAD_MLINESTYLE
350
17
0
DICTIONARY
5
D
100
AcDbDictionary
0
DICTIONARY
5
1A
330
C
100
AcDbDictionary
0
DICTIONARY
5
17
100
AcDbDictionary
0
ENDSEC
0
EOF
