0
SECTION
2
HEADER
9
$INSUNITS
70
1
9
$ACADVER
1
AC1014
9
$HANDSEED
5
FFFF
0
ENDSEC
0
SECTION
2
TABLES
0
TABLE
2
VPORT
5
8
100
AcDbSymbolTable
0
ENDTAB
0
TABLE
2
LTYPE
5
5
100
AcDbSymbolTable
0
LTYPE
5
14
100
AcDbSymbolTableRecord
100
AcDbLinetypeTableRecord
2
BYBLOCK
70
0
0
LTYPE
5
15
100
AcDbSymbolTableRecord
100
AcDbLinetypeTableRecord
2
BYLAYER
70
0
0
ENDTAB
0
TABLE
2
LAYER
5
2
100
AcDbSymbolTable
70
2
0
LAYER
5
50
100
AcDbSymbolTableRecord
100
AcDbLayerTableRecord
2
0
70
0
6
CONTINUOUS
0
ENDTAB
0
TABLE
2
STYLE
5
3
100
AcDbSymbolTable
70
1
0
STYLE
5
11
100
AcDbSymbolTableRecord
100
AcDbTextStyleTableRecord
2
STANDARD
70
0
0
ENDTAB
0
TABLE
2
VIEW
5
6
100
AcDbSymbolTable
70
0
0
ENDTAB
0
TABLE
2
UCS
5
7
100
AcDbSymbolTable
70
0
0
ENDTAB
0
TABLE
2
APPID
5
9
100
AcDbSymbolTable
70
2
0
APPID
5
12
100
AcDbSymbolTableRecord
100
AcDbRegAppTableRecord
2
ACAD
70
0
0
ENDTAB
0
TABLE
2
DIMSTYLE
5
A
100
AcDbSymbolTable
70
1
0
ENDTAB
0
TABLE
2
BLOCK_RECORD
5
1
100
AcDbSymbolTable
70
1
0
BLOCK_RECORD
5
1F
100
AcDbSymbolTableRecord
100
AcDbBlockTableRecord
2
*MODEL_SPACE
0
BLOCK_RECORD
5
1B
100
AcDbSymbolTableRecord
100
AcDbBlockTableRecord
2
*PAPER_SPACE
0
ENDTAB
0
ENDSEC
0
SECTION
2
BLOCKS
0
BLOCK
5
20
100
AcDbEntity
100
AcDbBlockBegin
2
*MODEL_SPACE
0
ENDBLK
5
21
100
AcDbEntity
100
AcDbBlockEnd
0
BLOCK
5
1C
100
AcDbEntity
100
AcDbBlockBegin
2
*PAPER_SPACE
0
ENDBLK
5
1D
100
AcDbEntity
100
AcDbBlockEnd
0
ENDSEC
0
SECTION
2
ENTITIES
0
LWPOLYLINE
5
100
100
AcDbEntity
8
0
100
AcDbPolyline
90
36
70
1
43
0.0
10
-6.9953309081364834
20
-0.61206368726009885
10
-8.2453309081364825
20
-0.61206368726009763
10
-8.2453309081364825
20
-0.31206367928152801
10
-8.4028112230971121
20
-0.31206367928152745
10
-8.4028112230971121
20
-0.61206368726009763
10
-8.7851699734365276
20
-0.61206368726009763
10
-8.7851699734365276
20
-0.012063671302956854
10
-0.25833333333333325
20
-0.012063671302956481
10
-0.25833333333333325
20
0.48793632869704356
10
0.16466666666666657
20
0.48793632869704245
10
0.16466666666666657
20
-0.22125984251968508
10
-0.13533333333333339
20
-0.22125984251968508
10
-0.13533333333333339
20
-0.37874015748031498
10
0.16466666666666657
20
-0.3787401574803142
10
0.16466666666666657
20
-1.1120636872601057
10
-0.2579293333333334
20
-1.1120636872601051
10
-0.25792933333333351
20
-0.61206368726010518
10
-1.2079293333333332
20
-0.61206368726010429
10
-1.2079293333333332
20
-0.31206368726009909
10
-1.3654096482939628
20
-0.31206368726009909
10
-1.3654096482939633
20
-0.61206368726009908
10
-2.6154096482939635
20
-0.61206368726009763
10
-2.6154096482939639
20
-0.3120636872600977
10
-2.7728899632545936
20
-0.3120636872600977
10
-2.7728899632545936
20
-0.61206368726009919
10
-4.0228899632545936
20
-0.61206368726009763
10
-4.0228899632545936
20
-0.3120636792815305
10
-4.1803702782152232
20
-0.31206367928153028
10
-4.1803702782152232
20
-0.61206368726009885
10
-5.4303702782152232
20
-0.61206368726009763
10
-5.4303702782152232
20
-0.31206367928152895
10
-5.5878505931758538
20
-0.31206367928152928
10
-5.5878505931758538
20
-0.61206368726009919
10
-6.8378505931758538
20
-0.61206368726009763
10
-6.8378505931758538
20
-0.31206367928152851
10
-6.9953309081364834
20
-0.31206367928152839
0
ENDSEC
0
SECTION
2
OBJECTS
0
DICTIONARY
5
C
100
AcDbDictionary
3
ACAD_GROUP
350
D
3
ACAD_MLINESTYLE
350
17
0
DICTIONARY
5
D
100
AcDbDictionary
0
DICTIONARY
5
1A
330
C
100
AcDbDictionary
0
DICTIONARY
5
17
100
AcDbDictionary
0
ENDSEC
0
EOF
