# Created by FreeCAD <http://www.freecadweb.org>
v -10.000000 10.000000 5.000000
v -10.000000 -10.000000 0.000000
v -10.000000 10.000000 0.000000
v -10.000000 -10.000000 5.000000
v 10.000000 -10.000000 0.000000
v 10.000000 -10.000000 5.000000
v 10.000000 10.000000 0.000000
v 10.000000 10.000000 5.000000
v 15.000000 15.000000 5.000000
v 15.000000 -15.000000 0.000000
v 15.000000 15.000000 0.000000
v 15.000000 -15.000000 5.000000
v -15.000000 -15.000000 0.000000
v -15.000000 -15.000000 5.000000
v -15.000000 15.000000 0.000000
v -15.000000 15.000000 5.000000
vn 1.000000 0.000000 0.000000
vn 1.000000 0.000000 0.000000
vn 0.000000 1.000000 0.000000
vn -0.000000 1.000000 0.000000
vn -1.000000 0.000000 0.000000
vn -1.000000 0.000000 0.000000
vn 0.000000 -1.000000 -0.000000
vn -0.000000 -1.000000 0.000000
vn 1.000000 0.000000 0.000000
vn 1.000000 0.000000 0.000000
vn 0.000000 -1.000000 -0.000000
vn -0.000000 -1.000000 0.000000
vn -1.000000 0.000000 0.000000
vn -1.000000 0.000000 0.000000
vn 0.000000 1.000000 0.000000
vn -0.000000 1.000000 0.000000
vn 0.000000 0.000000 1.000000
vn 0.000000 0.000000 1.000000
vn 0.000000 0.000000 1.000000
vn 0.000000 0.000000 1.000000
vn 0.000000 0.000000 1.000000
vn 0.000000 0.000000 1.000000
vn 0.000000 0.000000 1.000000
vn 0.000000 0.000000 1.000000
vn -0.000000 -0.000000 -1.000000
vn 0.000000 -0.000000 -1.000000
vn 0.000000 0.000000 -1.000000
vn 0.000000 0.000000 -1.000000
vn 0.000000 0.000000 -1.000000
vn 0.000000 0.000000 -1.000000
vn 0.000000 0.000000 -1.000000
vn 0.000000 0.000000 -1.000000
f 1//1 2//1 3//1
f 1//2 4//2 2//2
f 4//3 5//3 2//3
f 4//4 6//4 5//4
f 6//5 7//5 5//5
f 6//6 8//6 7//6
f 8//7 3//7 7//7
f 8//8 1//8 3//8
f 9//9 10//9 11//9
f 9//10 12//10 10//10
f 12//11 13//11 10//11
f 12//12 14//12 13//12
f 14//13 15//13 13//13
f 14//14 16//14 15//14
f 16//15 11//15 15//15
f 16//16 9//16 11//16
f 1//17 14//17 4//17
f 16//18 14//18 1//18
f 12//19 6//19 4//19
f 12//20 4//20 14//20
f 9//21 1//21 8//21
f 9//22 8//22 6//22
f 9//23 6//23 12//23
f 9//24 16//24 1//24
f 5//25 10//25 2//25
f 2//26 10//26 13//26
f 15//27 3//27 13//27
f 13//28 3//28 2//28
f 7//29 11//29 5//29
f 3//30 11//30 7//30
f 15//31 11//31 3//31
f 5//32 11//32 10//32
